<svg aria-hidden="true" style="position: absolute; width: 0; height: 0; overflow: hidden;" version="1.1" xmlns="http://www.w3.org/2000/svg" xmlns:xlink="http://www.w3.org/1999/xlink">
<defs>
<symbol id="icon-bubble" viewBox="0 0 32 32">
<path d="M16 2c8.837 0 16 5.82 16 13s-7.163 13-16 13c-0.849 0-1.682-0.054-2.495-0.158-3.437 3.437-7.539 4.053-11.505 4.144v-0.841c2.142-1.049 4-2.961 4-5.145 0-0.305-0.024-0.604-0.068-0.897-3.619-2.383-5.932-6.024-5.932-10.103 0-7.18 7.163-13 16-13z"></path>
</symbol>
<symbol id="icon-qr_code_" viewBox="0 0 24 24">
<path d="M15 21h-2.016v-2.016h2.016v2.016zM12.984 14.016h-1.969v4.969h1.969v-4.969zM21 12h-2.016v3.984h2.016v-3.984zM18.984 9.984h-1.969v2.016h1.969v-2.016zM6.984 12h-1.969v2.016h1.969v-2.016zM5.016 9.984h-2.016v2.016h2.016v-2.016zM12 5.016h2.016v-2.016h-2.016v2.016zM4.5 4.5v3h3v-3h-3zM9 9h-6v-6h6v6zM4.5 16.5v3h3v-3h-3zM9 21h-6v-6h6v6zM16.5 4.5v3h3v-3h-3zM21 9h-6v-6h6v6zM18.984 18.984v-3h-3.984v2.016h2.016v3h3.984v-2.016h-2.016zM17.016 12h-4.031v2.016h4.031v-2.016zM12.984 9.984h-6v2.016h2.016v2.016h2.016v-2.016h1.969v-2.016zM14.016 9v-2.016h-2.016v-1.969h-2.016v3.984h4.031zM6.75 5.25h-1.5v1.5h1.5v-1.5zM6.75 17.25h-1.5v1.5h1.5v-1.5zM18.75 5.25h-1.5v1.5h1.5v-1.5z"></path>
</symbol>
</defs>
</svg>

